<svg width="41" height="40" viewBox="0 0 41 40" fill="none" xmlns="http://www.w3.org/2000/svg">
<rect x="0.75" width="40" height="40" rx="4" fill="#F4F5F6"/>
<path d="M17.75 15H14.75C14.2196 15 13.7109 15.2107 13.3358 15.5858C12.9607 15.9609 12.75 16.4696 12.75 17V26C12.75 26.5304 12.9607 27.0391 13.3358 27.4142C13.7109 27.7893 14.2196 28 14.75 28H23.75C24.2804 28 24.7891 27.7893 25.1642 27.4142C25.5393 27.0391 25.75 26.5304 25.75 26V23" stroke="#384351" stroke-width="1.5" stroke-linecap="round" stroke-linejoin="round"/>
<path d="M17.75 23H20.75L29.25 14.5C29.6478 14.1022 29.8713 13.5626 29.8713 13C29.8713 12.4374 29.6478 11.8978 29.25 11.5C28.8522 11.1022 28.3126 10.8787 27.75 10.8787C27.1874 10.8787 26.6478 11.1022 26.25 11.5L17.75 20V23Z" stroke="#384351" stroke-width="1.5" stroke-linecap="round" stroke-linejoin="round"/>
<path d="M24.75 13L27.75 16" stroke="#384351" stroke-width="1.5" stroke-linecap="round" stroke-linejoin="round"/>
</svg>
