<svg id="SvgjsSvg1022" width="288" height="288" xmlns="http://www.w3.org/2000/svg" version="1.1" xmlns:xlink="http://www.w3.org/1999/xlink" xmlns:svgjs="http://svgjs.com/svgjs"><defs id="SvgjsDefs1023"></defs><g id="SvgjsG1024"><svg xmlns="http://www.w3.org/2000/svg" enable-background="new 0 0 64 64" viewBox="0 0 64 64" width="288" height="288"><path d="M58.39,10.42L48.2,0.21C48.06,0.08,47.88,0,47.68,0H11.16c-0.41,0-0.74,0.33-0.74,0.73v3.8H6.13
		c-0.41,0-0.73,0.33-0.73,0.74v58c0,0.4,0.32,0.73,0.73,0.73h46.71c0.41,0,0.74-0.33,0.74-0.73v-3.8h4.29
		c0.41,0,0.73-0.33,0.73-0.74v-47.8C58.6,10.74,58.53,10.55,58.39,10.42z M52.11,58.73c0,0.01,0,0.01,0,0.02v3.78H6.86V6h35.49
		l9.76,9.77V58.73z M57.14,58h-3.56V15.47c0-0.2-0.08-0.38-0.22-0.52L43.17,4.75c-0.13-0.14-0.32-0.22-0.51-0.22H11.89V1.47h35.49
		l9.76,9.77V58z" fill="#000000" class="color000 svgShape"></path><path fill="#feec72" d="M57.14,11.24V58h-3.56V15.47c0-0.2-0.08-0.38-0.22-0.52L43.17,4.75c-0.13-0.14-0.32-0.22-0.51-0.22H11.89V1.47
		h35.49L57.14,11.24z" class="colord3dcfb svgShape"></path><path fill="#e1e9ff" d="M42.35,6H6.86v56.53h45.25v-3.78c0-0.01,0-0.01,0-0.02V15.77L42.35,6z M23.08,11.32c0-0.04,0.37-3.7,5.65-3.44
		c0.04,0,0.09,0,0.14-0.01c1.5-0.21,4.17-0.38,5.14,0.78c0.19,0.23,0.37,0.57,0.37,1.04c0.73,0.42,1.55,1.34,1.58,3.03
		c0.01,0.08,0.2,2.87-1.08,4.67v0.08c0,1.68-0.78,3.4-2.08,4.56c-0.97,0.89-2.13,1.36-3.34,1.36c-1.17,0-2.29-0.45-3.26-1.28
		c-0.03-0.02-0.05-0.04-0.07-0.07c-1.3-1.15-2.1-2.91-2.09-4.6l0.02-0.84C23.51,16.05,22.81,14.69,23.08,11.32z M18.6,29.28
		c0.39-2.99,2.91-5.2,5.87-5.2c0.11,0.02,0.18,0.02,0.26,0.05c3.12,1.21,6.33,1.22,9.52,0.01c0.08-0.03,0.17-0.05,0.26-0.05
		c2.96,0,5.48,2.22,5.86,5.15l0.2,3.36c0.04,0.23-0.05,0.5-0.23,0.71c-0.18,0.21-0.45,0.33-0.73,0.33l-20.25-0.01
		c-0.28,0-0.54-0.12-0.73-0.33c-0.18-0.21-0.26-0.48-0.23-0.76L18.6,29.28z M45.22,55.89H13.75c-0.4,0-0.73-0.32-0.73-0.73
		c0-0.4,0.33-0.73,0.73-0.73h31.47c0.4,0,0.73,0.33,0.73,0.73C45.95,55.57,45.62,55.89,45.22,55.89z M45.22,47.49H13.75
		c-0.4,0-0.73-0.33-0.73-0.73c0-0.41,0.33-0.73,0.73-0.73h31.47c0.4,0,0.73,0.32,0.73,0.73C45.95,47.16,45.62,47.49,45.22,47.49z
		 M45.22,39.09H13.75c-0.4,0-0.73-0.33-0.73-0.73c0-0.41,0.33-0.74,0.73-0.74h31.47c0.4,0,0.73,0.33,0.73,0.74
		C45.95,38.76,45.62,39.09,45.22,39.09z" class="colore1e9ff svgShape"></path><path fill="#feec72" d="M52.11,62.17v0.36H6.86V9.49c3.62,6.62,7.56,12.97,11.9,19c-0.07,0.26-0.12,0.52-0.16,0.79l-0.2,3.26
		c-0.03,0.28,0.05,0.55,0.23,0.76c0.19,0.21,0.45,0.33,0.73,0.33h3.24c1.05,1.35,2.12,2.68,3.22,3.99H13.75
		c-0.4,0-0.73,0.33-0.73,0.74c0,0.4,0.33,0.73,0.73,0.73h13.3c2.04,2.38,4.14,4.69,6.33,6.94H13.75c-0.4,0-0.73,0.32-0.73,0.73
		c0,0.4,0.33,0.73,0.73,0.73h21.07c2.38,2.39,4.87,4.7,7.45,6.94H13.75c-0.4,0-0.73,0.33-0.73,0.73c0,0.41,0.33,0.73,0.73,0.73H44
		C46.6,58.07,49.3,60.17,52.11,62.17z" class="colord3dcfb svgShape"></path><path d="M40.37,29.24c-0.38-2.93-2.9-5.15-5.86-5.15c-0.09,0-0.18,0.02-0.26,0.05c-3.19,1.21-6.4,1.2-9.52-0.01
		c-0.08-0.03-0.15-0.03-0.26-0.05c-2.96,0-5.48,2.21-5.87,5.2l-0.2,3.26c-0.03,0.28,0.05,0.55,0.23,0.76
		c0.19,0.21,0.45,0.33,0.73,0.33l20.25,0.01c0.28,0,0.55-0.12,0.73-0.33c0.18-0.21,0.27-0.48,0.23-0.71L40.37,29.24z M19.89,32.16
		l0.17-2.74c0.28-2.17,2.11-3.81,4.28-3.87c3.38,1.28,6.84,1.28,10.3,0.01c2.17,0.06,3.99,1.7,4.27,3.82l0.17,2.8L19.89,32.16z" fill="#000000" class="color000 svgShape"></path><path fill="#ea526c" d="M39.08,32.18l-19.19-0.02l0.17-2.74c0.28-2.17,2.11-3.81,4.28-3.87c3.38,1.28,6.84,1.28,10.3,0.01
		c2.17,0.06,3.99,1.7,4.27,3.82L39.08,32.18z" class="colorea526c svgShape"></path><path fill="#d84464" d="M39.08,32.18h-0.9l-0.08-1.34c-0.28-2.12-2.1-3.76-4.27-3.82c-3.46,1.27-6.92,1.27-10.3-0.01
		c-1.31,0.04-2.5,0.65-3.29,1.61c0.57-1.76,2.2-3.02,4.1-3.07c3.38,1.28,6.84,1.28,10.3,0.01c2.17,0.06,3.99,1.7,4.27,3.82
		L39.08,32.18z" class="colord84464 svgShape"></path><path d="M35.96,12.72c-0.03-1.69-0.85-2.61-1.58-3.03c0-0.47-0.18-0.81-0.37-1.04c-0.97-1.16-3.64-0.99-5.14-0.78
		c-0.05,0.01-0.1,0.01-0.14,0.01c-5.28-0.26-5.65,3.4-5.65,3.44c-0.27,3.37,0.43,4.73,0.98,5.28l-0.02,0.84
		c-0.01,1.69,0.79,3.45,2.09,4.6c0.02,0.03,0.04,0.05,0.07,0.07c0.97,0.83,2.09,1.28,3.26,1.28c1.21,0,2.37-0.47,3.34-1.36
		c1.3-1.16,2.08-2.88,2.08-4.56v-0.08C36.16,15.59,35.97,12.8,35.96,12.72z M33.42,16.07v1.38c0,1.27-0.61,2.61-1.6,3.5
		c-0.7,0.63-1.52,0.97-2.36,0.97c-0.98,0-1.75-0.46-2.25-0.87c-0.02-0.02-0.04-0.04-0.06-0.06c-1.02-0.88-1.65-2.24-1.65-3.54
		l0.03-1.26l0.06-1.36c0-0.62,0.2-1.1,0.6-1.43l0.09-0.07c0.14-0.12,0.31-0.17,0.48-0.15l0.49,0.05c0.09,0,0.18,0,0.27-0.03
		c0.94-0.27,1.71-0.22,2.18-0.13l0.01,0.14c0.02,0.24,0.15,0.46,0.36,0.59c0.21,0.12,0.47,0.13,0.69,0.03l1.25-0.6
		c0.43-0.21,0.59-0.1,0.65-0.07c0.5,0.32,0.76,1.7,0.78,2.57C33.43,15.84,33.42,15.96,33.42,16.07z M34.51,13.41
		c-0.22-0.6-0.55-1.17-1.08-1.49c-0.23-0.15-0.56-0.28-0.98-0.28c-0.31,0-0.67,0.07-1.07,0.26l-0.45,0.22
		c-0.15-0.2-0.37-0.35-0.63-0.42c-0.55-0.14-1.66-0.31-3.04,0.05l-0.35-0.03c-0.57-0.05-1.13,0.11-1.56,0.48l-0.1,0.07
		c-0.31,0.26-0.57,0.58-0.76,0.95c-0.02-0.49-0.01-1.08,0.05-1.78c0-0.02,0.25-2.29,4.12-2.1c0.13,0.01,0.27,0,0.41-0.02
		c2.01-0.28,3.52-0.08,3.82,0.27c0.01,0.02,0.06,0.08-0.01,0.32c-0.07,0.19-0.04,0.4,0.06,0.58c0.1,0.18,0.27,0.31,0.47,0.36
		c0.11,0.03,1.06,0.31,1.09,1.94C34.51,12.94,34.52,13.16,34.51,13.41z" fill="#000000" class="color000 svgShape"></path><path fill="#feec72" d="M34.51,13.41c-0.22-0.6-0.55-1.17-1.08-1.49c-0.23-0.15-0.56-0.28-0.98-0.28c-0.31,0-0.67,0.07-1.07,0.26
		l-0.45,0.22c-0.15-0.2-0.37-0.35-0.63-0.42c-0.55-0.14-1.66-0.31-3.04,0.05l-0.35-0.03c-0.57-0.05-1.13,0.11-1.56,0.48l-0.1,0.07
		c-0.31,0.26-0.57,0.58-0.76,0.95c-0.02-0.49-0.01-1.08,0.05-1.78c0-0.02,0.25-2.29,4.12-2.1c0.13,0.01,0.27,0,0.41-0.02
		c2.01-0.28,3.52-0.08,3.82,0.27c0.01,0.02,0.06,0.08-0.01,0.32c-0.07,0.19-0.04,0.4,0.06,0.58c0.1,0.18,0.27,0.31,0.47,0.36
		c0.11,0.03,1.06,0.31,1.09,1.94C34.51,12.94,34.52,13.16,34.51,13.41z" class="colord3dcfb svgShape"></path><path fill="#c0c6e5" d="M34.51,13.41c-0.22-0.6-0.55-1.17-1.08-1.49c-0.23-0.15-0.56-0.28-0.98-0.28c-0.07,0-0.14,0-0.22,0.01
		c-0.09-0.07-0.16-0.15-0.21-0.24c-0.1-0.18-0.13-0.39-0.06-0.58c0.07-0.24,0.02-0.3,0.01-0.32c-0.3-0.35-1.81-0.55-3.82-0.27
		c-0.14,0.02-0.28,0.03-0.41,0.02c-1.44-0.07-2.38,0.2-2.99,0.57c0.37-0.66,1.34-1.62,3.91-1.49c0.13,0.01,0.27,0,0.41-0.02
		c2.01-0.28,3.52-0.08,3.82,0.27c0.01,0.02,0.06,0.08-0.01,0.32c-0.07,0.19-0.04,0.4,0.06,0.58c0.1,0.18,0.27,0.31,0.47,0.36
		c0.11,0.03,1.06,0.31,1.09,1.94C34.51,12.94,34.52,13.16,34.51,13.41z" class="colorc0c6e5 svgShape"></path><path fill="#edcdbe" d="M33.44,15.73c-0.01,0.11-0.02,0.23-0.02,0.34v1.38c0,1.27-0.61,2.61-1.6,3.5c-0.7,0.63-1.52,0.97-2.36,0.97
		c-0.98,0-1.75-0.46-2.25-0.87c-0.02-0.02-0.04-0.04-0.06-0.06c-1.02-0.88-1.65-2.24-1.65-3.54l0.03-1.26l0.06-1.36
		c0-0.62,0.2-1.1,0.6-1.43l0.09-0.07c0.14-0.12,0.31-0.17,0.48-0.15l0.49,0.05c0.09,0,0.18,0,0.27-0.03
		c0.94-0.27,1.71-0.22,2.18-0.13l0.01,0.14c0.02,0.24,0.15,0.46,0.36,0.59c0.21,0.12,0.47,0.13,0.69,0.03l1.25-0.6
		c0.43-0.21,0.59-0.1,0.65-0.07C33.16,13.48,33.42,14.86,33.44,15.73z" class="coloredcdbe svgShape"></path><path d="M45.95 38.36c0 .4-.33.73-.73.73H13.75c-.4 0-.73-.33-.73-.73 0-.41.33-.74.73-.74h31.47C45.62 37.62 45.95 37.95 45.95 38.36zM45.95 46.76c0 .4-.33.73-.73.73H13.75c-.4 0-.73-.33-.73-.73 0-.41.33-.73.73-.73h31.47C45.62 46.03 45.95 46.35 45.95 46.76zM45.95 55.16c0 .41-.33.73-.73.73H13.75c-.4 0-.73-.32-.73-.73 0-.4.33-.73.73-.73h31.47C45.62 54.43 45.95 54.76 45.95 55.16z" fill="#000000" class="color000 svgShape"></path></svg></g></svg>