<svg xmlns="http://www.w3.org/2000/svg" xmlns:xlink="http://www.w3.org/1999/xlink" width="26" height="26"><defs><linearGradient id="b" x1="868.253" x2="937.656" y1="521.354" y2="588.736" gradientTransform="translate(-673.042 625.151) scale(.78112)" gradientUnits="userSpaceOnUse" xlink:href="#a"/><linearGradient id="a"><stop offset="0" stop-color="#24f3d2"/><stop offset=".394" stop-color="#0674f0"/><stop offset=".507" stop-color="#6961b5"/><stop offset=".813" stop-color="#f34660"/><stop offset="1" stop-color="#ee078d"/></linearGradient></defs><g transform="translate(-1.03 -1096.225) scale(1.06642)"><rect width="24.381" height="24.381" x=".965" y="1027.95" fill="url(#b)" rx="5.152" ry="5.152"/><path style="line-height:normal;text-indent:0;text-align:start;text-decoration-line:none;text-decoration-style:solid;text-decoration-color:#000;text-transform:none;block-progression:tb;isolation:auto;mix-blend-mode:normal" fill="#fff" fill-rule="evenodd" d="M13.157 1034.514a5.62 5.62 0 0 1 5.626 5.627 5.62 5.62 0 0 1-5.626 5.626 5.62 5.62 0 0 1-5.629-5.626 5.62 5.62 0 0 1 5.629-5.627zm3.274 5.156-6.553.011c-.626 0-.624.94.002.94l6.553-.013c.634.01.632-.948-.002-.938z" color="#000" font-family="sans-serif" font-weight="400" overflow="visible"/></g></svg>