<svg xmlns="http://www.w3.org/2000/svg" xmlns:svgjs="http://svgjs.com/svgjs" xmlns:xlink="http://www.w3.org/1999/xlink" width="288" height="288"><svg xmlns="http://www.w3.org/2000/svg" width="288" height="288" viewBox="0 0 32 32"><g class="color000 svgShape" transform="translate(0 -1020.362)"><path fill="#7d9ec7" stroke="#105286" stroke-linecap="round" stroke-linejoin="round" d="M6.5 1024.862h18c.554 0 1 .446 1 1v23c0 .554-.446 1-1 1h-18c-.554 0-1-.446-1-1v-23c0-.554.446-1 1-1z" class="color7d9ec7 svgShape colorStroke105286 svgStroke"/><path fill="#fbfdfe" d="M8.03 1046.617h12.184l3.536-3.533v-16.794c0-.653-.526-1.178-1.179-1.178H8.43c-.653 0-1.179.525-1.179 1.178v19.084c0 .652.137 1.137.78 1.243z" class="colorfbfdfe svgShape"/><path fill="none" stroke="#105286" stroke-linecap="round" stroke-linejoin="round" d="M7.25 1043.222v2.208c0 .652.526 1.177 1.179 1.177h11.785l3.536-3.532v-16.785c0-.653-.526-1.178-1.179-1.178H8.43c-.653 0-1.179.525-1.179 1.178v14.914" class="colorStroke105286 svgStroke"/><path fill="#105286" stroke="#105286" stroke-linecap="round" stroke-linejoin="round" d="m20.214 1046.607 3.536-3.532h-2.357c-1.179 0-1.179 1.164-1.179 1.164z" class="color105286 svgShape colorStroke105286 svgStroke"/><rect width="8" height="3.01" x="11.5" y="1023.862" fill="#2dbca4" stroke="#105286" stroke-linecap="round" stroke-linejoin="round" class="color2dbca4 svgShape colorStroke105286 svgStroke" rx=".5" ry="0"/><rect width="8.081" height="1" x="14.419" y="1028.362" fill="#8fb6d7" class="color8fb6d7 svgShape" rx="0" ry="0"/><rect width="8.081" height="1" x="14.419" y="-1031.362" fill="#8fb6d7" class="color8fb6d7 svgShape" rx="0" ry="0" transform="scale(1 -1)"/><rect width="8.081" height="1" x="14.419" y="1032.362" fill="#8fb6d7" class="color8fb6d7 svgShape" rx="0" ry="0"/><rect width="14" height="1" x="8.5" y="-1035.362" fill="#8fb6d7" class="color8fb6d7 svgShape" rx="0" ry="0" transform="scale(1 -1)"/><rect width="14" height="1" x="8.5" y="1036.362" fill="#8fb6d7" class="color8fb6d7 svgShape" rx="0" ry="0"/><rect width="14" height="1" x="8.5" y="-1039.362" fill="#8fb6d7" class="color8fb6d7 svgShape" rx="0" ry="0" transform="scale(1 -1)"/><rect width="7" height="1" x="8.5" y="-1041.362" fill="#8fb6d7" class="color8fb6d7 svgShape" rx="0" ry="0" transform="scale(1 -1)"/><path fill="#105286" d="M8.419 1028.362h5v5h-5z" class="color105286 svgShape"/><path fill="#8fb6d7" fill-rule="evenodd" d="m9.92 1032.362.75-1.5.75 1.5" class="color8fb6d7 svgShape"/><path fill="#406b95" fill-rule="evenodd" d="m10.67 1032.362 1.124-2.25 1.125 2.25" class="color406b95 svgShape"/><circle cx="9.919" cy="1029.862" r=".5" fill="#f8b84e" class="colorf8b84e svgShape"/></g></svg></svg>