<svg xmlns="http://www.w3.org/2000/svg" xmlns:xlink="http://www.w3.org/1999/xlink" width="26" height="26"><defs><linearGradient id="b" x1="949.87" x2="974.39" y1="518.014" y2="544.657" gradientTransform="translate(-737.745 625.151) scale(.78112)" gradientUnits="userSpaceOnUse" xlink:href="#a"/><linearGradient id="a"><stop offset="0" stop-color="#24f7bc"/><stop offset="1" stop-color="#24c4fc"/></linearGradient></defs><g transform="translate(-1.03 -1096.225) scale(1.06642)"><rect width="24.381" height="24.381" x=".965" y="1027.95" fill="url(#b)" rx="5.152" ry="5.152"/><path style="line-height:normal;text-indent:0;text-align:start;text-decoration-line:none;text-decoration-style:solid;text-decoration-color:#000;text-transform:none;block-progression:tb;isolation:auto;mix-blend-mode:normal" fill="#fff" fill-rule="evenodd" d="M13.157 1034.514a5.62 5.62 0 0 1 5.626 5.627 5.62 5.62 0 0 1-5.626 5.626 5.62 5.62 0 0 1-5.629-5.626 5.62 5.62 0 0 1 5.629-5.627zm-.013 1.88a.466.466 0 0 0-.462.476l.006 2.805-2.81.01c-.626 0-.624.941.002.94l2.808-.01.005 2.808c-.009.634.947.634.938 0l-.004-2.81 2.806-.01c.634.01.632-.948-.002-.937l-2.806.01-.003-2.806a.469.469 0 0 0-.478-.475z" color="#000" font-family="sans-serif" font-weight="400" overflow="visible"/></g></svg>