<svg xmlns="http://www.w3.org/2000/svg" xmlns:svgjs="http://svgjs.com/svgjs" xmlns:xlink="http://www.w3.org/1999/xlink" width="288" height="288"><svg xmlns="http://www.w3.org/2000/svg" width="288" height="288" fill-rule="evenodd" stroke-linejoin="round" stroke-miterlimit="2" clip-rule="evenodd" viewBox="0 0 32 32"><path fill="#fff" d="M16,113.889C12.437,113.889 9.285,114.883 7.327,116.367C5.83,117.501 5,118.932 5,120.444C5,121.957 5.83,123.388 7.327,124.522C9.285,126.006 12.437,127 16,127C19.563,127 22.715,126.006 24.673,124.522C26.17,123.388 27,121.957 27,120.444C27,118.932 26.17,117.501 24.673,116.367C22.715,114.883 19.563,113.889 16,113.889ZM16,97C12.159,97 9,100.339 9,104.5C9,108.661 12.159,112 16,112C19.841,112 23,108.661 23,104.5C23,100.339 19.841,97 16,97Z" class="color000 svgShape" transform="translate(0 -96)"/></svg></svg>