<svg xmlns="http://www.w3.org/2000/svg" xmlns:svgjs="http://svgjs.com/svgjs" xmlns:xlink="http://www.w3.org/1999/xlink" width="288" height="288"><svg xmlns="http://www.w3.org/2000/svg" width="288" height="288" viewBox="0 0 32 32"><path style="line-height:normal;text-indent:0;text-align:start;text-decoration-line:none;text-decoration-style:solid;text-decoration-color:#000;text-transform:none;block-progression:tb;white-space:normal;isolation:auto;mix-blend-mode:normal;solid-color:#000;solid-opacity:1" fill="#feec72" d="M8.924 3c-1.07 0-1.922.915-1.922 2v1H5.096a.5.5 0 0 0-.469.328l-2.563 6.916a.5.5 0 0 0-.056.164.5.5 0 0 0 .021.295c.07.809.513 1.545 1.223 1.955.537.31 1.16.39 1.75.27V29.5a.5.5 0 0 0 .5.5h2.924a.5.5 0 0 0 .576-.5v-6.506h3V29.5a.5.5 0 0 0 .572.5.5.5 0 0 0 .012 0h14.916a.5.5 0 0 0 .5-.5V15.928c.59.12 1.213.04 1.75-.27a2.492 2.492 0 0 0 1.223-1.957.5.5 0 0 0 .02-.308.5.5 0 0 0-.056-.15l-2.56-6.915A.5.5 0 0 0 27.91 6h-1.908V5c0-1.085-.85-2-1.92-2H8.924zm0 1h15.158c.504 0 .92.423.92 1v1h-17V5c0-.577.418-1 .922-1zm-3.48 3h22.119l2.43 6.563a1.492 1.492 0 0 1-2.241 1.228 1.498 1.498 0 0 1-.75-1.299.5.5 0 0 0-.002-.05.5.5 0 0 0-.146-.311.5.5 0 0 0-.036-.033.5.5 0 0 0-.002 0 .5.5 0 0 0-.273-.112.5.5 0 0 0-.098.002.5.5 0 0 0-.002 0 .5.5 0 0 0-.304.153.5.5 0 0 0 0 .002.5.5 0 0 0-.034.037.5.5 0 0 0 0 .002.5.5 0 0 0-.027.039.5.5 0 0 0-.002.002.5.5 0 0 0-.01.017.5.5 0 0 0-.013.024.5.5 0 0 0 0 .002.5.5 0 0 0-.02.045.5.5 0 0 0 0 .002.5.5 0 0 0-.015.044.5.5 0 0 0 0 .002.5.5 0 0 0-.01.047.5.5 0 0 0 0 .002.5.5 0 0 0-.006.049.5.5 0 0 0 0 .035 1.498 1.498 0 0 1-2.25 1.299 1.498 1.498 0 0 1-.75-1.299.5.5 0 0 0-.002-.05.5.5 0 0 0-.146-.311.5.5 0 0 0-.036-.033.5.5 0 0 0-.002 0 .5.5 0 0 0-.273-.112.5.5 0 0 0-.098.002.5.5 0 0 0-.002 0 .5.5 0 0 0-.304.153.5.5 0 0 0 0 .002.5.5 0 0 0-.034.037.5.5 0 0 0 0 .002.5.5 0 0 0-.027.039.5.5 0 0 0-.002.002.5.5 0 0 0-.01.017.5.5 0 0 0-.013.024.5.5 0 0 0 0 .002.5.5 0 0 0-.02.045.5.5 0 0 0 0 .002.5.5 0 0 0-.015.044.5.5 0 0 0 0 .002.5.5 0 0 0-.01.047.5.5 0 0 0 0 .002.5.5 0 0 0-.006.049.5.5 0 0 0 0 .035 1.498 1.498 0 0 1-2.25 1.299 1.498 1.498 0 0 1-.75-1.299.5.5 0 0 0-.002-.05.5.5 0 0 0-.146-.311.5.5 0 0 0-.036-.033.5.5 0 0 0-.002 0 .5.5 0 0 0-.273-.112.5.5 0 0 0-.098.002.5.5 0 0 0-.002 0 .5.5 0 0 0-.304.153.5.5 0 0 0 0 .002.5.5 0 0 0-.034.037.5.5 0 0 0 0 .002.5.5 0 0 0-.027.039.5.5 0 0 0-.002.002.5.5 0 0 0-.01.017.5.5 0 0 0-.013.024.5.5 0 0 0 0 .002.5.5 0 0 0-.02.045.5.5 0 0 0 0 .002.5.5 0 0 0-.015.044.5.5 0 0 0 0 .002.5.5 0 0 0-.01.047.5.5 0 0 0 0 .002.5.5 0 0 0-.006.049.5.5 0 0 0 0 .035 1.498 1.498 0 0 1-2.25 1.299 1.498 1.498 0 0 1-.75-1.299.5.5 0 0 0-.002-.05.5.5 0 0 0-.146-.311.5.5 0 0 0-.036-.033.5.5 0 0 0-.002 0 .5.5 0 0 0-.273-.112.5.5 0 0 0-.098.002.5.5 0 0 0-.002 0 .5.5 0 0 0-.304.153.5.5 0 0 0 0 .002.5.5 0 0 0-.034.037.5.5 0 0 0 0 .002.5.5 0 0 0-.027.039.5.5 0 0 0-.002.002.5.5 0 0 0-.01.017.5.5 0 0 0-.013.024.5.5 0 0 0 0 .002.5.5 0 0 0-.02.045.5.5 0 0 0 0 .002.5.5 0 0 0-.015.044.5.5 0 0 0 0 .002.5.5 0 0 0-.01.047.5.5 0 0 0 0 .002.5.5 0 0 0-.006.049.5.5 0 0 0 0 .035 1.498 1.498 0 0 1-2.25 1.299 1.498 1.498 0 0 1-.75-1.299.5.5 0 0 0-.002-.05.5.5 0 0 0-.146-.311.5.5 0 0 0-.036-.033.5.5 0 0 0-.002 0 .5.5 0 0 0-.273-.112.5.5 0 0 0-.098.002.5.5 0 0 0-.002 0 .5.5 0 0 0-.304.153.5.5 0 0 0 0 .002.5.5 0 0 0-.034.037.5.5 0 0 0 0 .002.5.5 0 0 0-.027.039.5.5 0 0 0-.002.002.5.5 0 0 0-.01.017.5.5 0 0 0-.013.024.5.5 0 0 0 0 .002.5.5 0 0 0-.02.045.5.5 0 0 0 0 .002.5.5 0 0 0-.015.044.5.5 0 0 0 0 .002.5.5 0 0 0-.01.047.5.5 0 0 0 0 .002.5.5 0 0 0-.006.049.5.5 0 0 0 0 .035 1.498 1.498 0 0 1-2.25 1.299 1.498 1.498 0 0 1-.75-1.299.5.5 0 0 0-.002-.05.5.5 0 0 0-.146-.311.5.5 0 0 0-.036-.033.5.5 0 0 0-.002 0 .5.5 0 0 0-.273-.112.5.5 0 0 0-.098.002.5.5 0 0 0-.002 0 .5.5 0 0 0-.304.153.5.5 0 0 0 0 .002.5.5 0 0 0-.034.037.5.5 0 0 0 0 .002.5.5 0 0 0-.027.039.5.5 0 0 0-.002.002.5.5 0 0 0-.01.017.5.5 0 0 0-.013.024.5.5 0 0 0 0 .002.5.5 0 0 0-.02.045.5.5 0 0 0 0 .002.5.5 0 0 0-.015.044.5.5 0 0 0 0 .002.5.5 0 0 0-.01.047.5.5 0 0 0 0 .002.5.5 0 0 0-.006.049.5.5 0 0 0 0 .035 1.498 1.498 0 0 1-2.25 1.299 1.493 1.493 0 0 1-.74-1.227L5.443 7zm1.058 7.957c.202.276.444.525.75.701a2.502 2.502 0 0 0 2.5 0c.306-.176.548-.425.75-.701.202.276.444.525.75.701a2.502 2.502 0 0 0 2.5 0c.306-.176.548-.425.75-.701.202.276.444.525.75.701a2.502 2.502 0 0 0 2.5 0c.306-.176.548-.425.75-.701.202.276.444.525.75.701a2.502 2.502 0 0 0 2.5 0c.306-.176.548-.425.75-.701.202.276.444.525.75.701a2.502 2.502 0 0 0 2.5 0c.306-.176.548-.425.75-.701.14.192.307.361.5.508V29h-14v-6.506a.5.5 0 0 0-.5-.5h-4a.5.5 0 0 0-.5.5V29h-2V15.465c.193-.147.36-.316.5-.508zm11 4.043a.5.5 0 0 0-.5.5v6a.5.5 0 0 0 .5.5h7a.5.5 0 0 0 .5-.5v-6a.5.5 0 0 0-.5-.5h-7zm.5 1h6v5h-6v-5z" class="color373449 svgShape" color="#000" enable-background="accumulate" font-family="sans-serif" font-weight="400" overflow="visible"/></svg></svg>